/* XPM */
static char * maxufcs_xpm[] = {
"21 21 17 1",
" 	c #898989",
".	c #555555",
"+	c #1F1F1F",
"@	c #474747",
"#	c #3A3A3A",
"$	c #363636",
"%	c #262626",
"&	c #252525",
"*	c #282828",
"=	c #383838",
"-	c #B4B4B4",
";	c #232323",
">	c #222222",
",	c #161616",
"'	c #353535",
")	c #333333",
"!	c #6B6B6B",
"                     ",
".....................",
"+++++++++++++++++++++",
"@@@@@@@@@@@@@@@@@@@@@",
"#####################",
"#####################",
"#####################",
"########$%&&&*=######",
"########%-----&######",
"########;----->######",
"########&-,>,->######",
"########&-,>,->######",
"########%-----&######",
"########$%;&&*'######",
"#####################",
"#####################",
"#####################",
")))))))))))))))))))))",
"+++++++++++++++++++++",
"                     ",
"!!!!!!!!!!!!!!!!!!!!!"};
